<?xml version="1.0" standalone="no"?><!DOCTYPE svg PUBLIC "-//W3C//DTD SVG 1.1//EN" "http://www.w3.org/Graphics/SVG/1.1/DTD/svg11.dtd"><svg t="1572194556609" class="icon" viewBox="0 0 1024 1024" version="1.1" xmlns="http://www.w3.org/2000/svg" p-id="4282" xmlns:xlink="http://www.w3.org/1999/xlink" width="200" height="200"><defs><style type="text/css"></style></defs><path d="M960 223.2c-0.8-52.5-27.9-101.3-68-129.2-19.9-14.2-42.6-23.8-66.2-27.9-23.6-4.1-47.7-2.6-70.5 3.6-88.6 25.3-178 47.7-268 67.7l-135 30c-5.7 1.4-11 2.3-17 4.1l-18.1 5.5c-5.8 2.4-11.6 5.2-17.3 7.9-5.9 2.5-10.9 6.6-16.4 9.9-21 14.6-38.5 34.4-50.7 57.1-24.2 45.4-26.3 103.2-2.2 150.5 11.2 23.6 30.9 44.2 46 59.5l47.9 49.8L516.2 711l23.9 25 11.9 12.5 6 6.2 7.6 7c20.1 18.8 44.9 33.6 72.1 40.9 54.2 15.4 115.1 3.8 160.4-31.4 22.5-17.6 41.4-40.7 53-67.1 5.4-12.9 10.3-28 12.9-38l9.1-33.3c12-44.5 23.2-89.1 34.3-133.8 10.9-44.8 20.9-89.8 30-135l13.1-68 6.2-34.1c1-5.6 1.8-12.9 2.6-19.2 1.1-6.4 0.8-13 0.7-19.5z m-38.2-2c-0.8 5-1.3 9.9-3 14.7-1.6 5-2.5 9.2-4.5 14.6l-11.7 32.6-22.7 65.4c-14.7 43.7-28.6 87.7-41.6 131.9-12.7 44.3-25.3 88.6-37.2 133.1-6 21.6-11.6 47.2-17.3 61-6.4 16.1-17 30.2-30.2 41.5-26.2 23-64.7 33.1-99.8 25.1-17.6-3.8-33.9-12.6-48-24.5l-5.4-4.4-6.2-6-12.5-11.9-25-23.9-199.2-191.5-49.8-47.9c-17.8-16.7-30.7-29.6-40.4-47.3-19.6-34.4-20-79.1-2.4-115.6 8.5-18.4 21.4-34.8 37.5-47.4 4.3-2.8 8-6.5 12.6-8.8 4.5-2.4 9-5.1 13.6-7.5l14.6-5.7c4.9-1.9 10.8-3.5 16.2-5.2L491.3 152c88-27.6 176.6-52.9 265.9-75.3 21.9-5.1 44.9-5.3 66.3 0.1 21.5 5.4 41.3 16.2 57.3 30.9 16.1 14.6 28.1 33.1 35.1 52.8 7.1 19.9 8.8 40.9 5.9 60.7zM377.2 670.7c-13.9-12.9-27.4-26.3-40.4-40.2l-9.6-10.5-5.3-5.4-5.8-4.9c-8-6.3-17.1-11.3-27.1-14.4-19.8-6.6-43-5.8-63.3 3.7-5.1 2.3-9.9 5.3-14.6 8.5l-6.6 5.2-5.4 4.6-21.5 18.7-42.4 38.2-21.2 19.1-10.6 9.5-5.3 4.8-6.5 6.6c-16.6 18.5-26 43.7-25.6 69.2 0.2 25.4 10.4 51.1 28.3 70.1 12.8 14 25.6 28.1 38.1 42.4l9.5 10.8c4.6 4.9 9.6 9.5 15.1 13.6 11 8.2 23.6 14.4 36.9 18 26.8 7.3 56.7 3.8 81.3-10.2 6.2-3.5 11.9-7.6 17.3-12.2 2.5-2.3 5.4-4.9 7.5-6.9l4.9-5.1c6.5-6.9 12.9-13.9 19.3-21 12.7-14.2 24.7-29 36-44.5 5.7-7.7 11.1-15.8 16.6-23.7l17-25.6c12.4-20.7 15.6-44.5 11.9-65.4-3.4-21-13.9-39.5-28.5-53z m11.1 53.8c-1.8 17.1-11.6 31.7-23.6 40l-22.8 15.1c-7.9 5.6-15.9 10.9-23.7 16.6-15.5 11.4-30.3 23.4-44.5 36-7 6.4-14.1 12.8-21 19.3l-5.1 4.9-3 2.7c-1.9 1.5-3.9 3-6.1 4.1-8.3 4.8-18.5 7.2-28.8 5.9-5.1-0.5-10.2-2-15-4.5-2.4-1.2-4.6-2.8-6.9-4.4l-10.6-9.3c-14.3-12.5-28.4-25.3-42.4-38.1-9-8-15.1-19.3-16.4-31.9-1.4-12.5 2-25.7 9.8-36.3l3.1-4 4.8-5.3 9.5-10.6 19.1-21.2 38.2-42.4 18.8-21.5 8.5-9.9c2.7-2.8 5.6-5.4 8.8-7.7 12.6-9.4 29.6-14.3 46.7-12.4 8.5 1.1 17 3.7 24.8 8.1 3.8 2.3 7.5 4.8 10.9 7.8l10.5 9.6c13.9 12.9 27.3 26.4 40.2 40.4 12.4 13.6 18.3 32.1 16.2 49z" fill="#8a8a8a" p-id="4283"></path></svg>